<?xml version="1.0"?>
<svg xmlns:dc="http://purl.org/dc/elements/1.1/" xmlns:cc="http://creativecommons.org/ns#" xmlns:rdf="http://www.w3.org/1999/02/22-rdf-syntax-ns#" xmlns:svg="http://www.w3.org/2000/svg" xmlns="http://www.w3.org/2000/svg" xmlns:sodipodi="http://sodipodi.sourceforge.net/DTD/sodipodi-0.dtd" xmlns:inkscape="http://www.inkscape.org/namespaces/inkscape" id="svg8" version="1.1" viewBox="0 0 109.27853 13.995634" height="13.995634mm" width="109.27853mm">
  <defs id="defs2"></defs>
  <namedview fit-margin-bottom="0" fit-margin-right="0" fit-margin-left="0" fit-margin-top="0" showgrid="false" borderopacity="1.0" bordercolor="#666666" pagecolor="#ffffff" id="base"></namedview>
  <metadata id="metadata5">
    <RDF>
      <Work>
        <format>image/svg+xml</format>
        <type></type>
        <title></title>
      </Work>
    </RDF>
  </metadata>
  <g style="display:inline" transform="translate(-38.194637,-129.82173)" id="layer1">
    <g transform="translate(-0.04724702,10.914063)" id="g859">
      <path style="fill:#ECEDF4;stroke-width:0.085;stroke-miterlimit:4;stroke-dasharray:none" d="m 55.148496,130.62302 c -0.741965,-0.13466 -1.143898,-0.26205 -1.639163,-0.51953 -0.75302,-0.39146 -0.741396,-0.36166 -0.424482,-1.08851 0.152908,-0.3507 0.301384,-0.63763 0.329948,-0.63763 0.02856,0 0.356795,0.15342 0.729401,0.34094 1.171336,0.58948 2.509845,0.73667 3.412975,0.37531 0.480166,-0.19212 0.693491,-0.47876 0.693491,-0.93181 0,-0.30146 -0.04422,-0.39927 -0.264221,-0.58438 -0.352236,-0.29639 -0.609289,-0.39636 -1.827807,-0.71083 -1.899232,-0.49015 -2.54411,-0.84356 -2.915469,-1.59774 -0.268973,-0.54624 -0.277284,-1.49769 -0.01803,-2.06373 0.641381,-1.40033 2.798501,-2.038 4.983191,-1.47309 0.519439,0.13431 1.397,0.5321 1.397,0.63324 0,0.0899 -0.432131,1.13738 -0.497714,1.20648 -0.03274,0.0345 -0.332323,-0.0519 -0.665737,-0.19198 -1.653455,-0.69471 -3.40298,-0.45371 -3.660944,0.50429 -0.201027,0.74656 0.194784,1.04533 2.030395,1.5326 1.517528,0.40284 1.924714,0.56639 2.419452,0.97179 1.00143,0.82059 0.990505,2.50024 -0.02234,3.43384 -0.86576,0.79803 -2.403649,1.10135 -4.059953,0.80074 z m 31.846504,0.006 c -0.89587,-0.17518 -1.743361,-0.51754 -2.175259,-0.87874 -0.133571,-0.1117 -0.12877,-0.15214 0.07098,-0.59796 0.117833,-0.26298 0.247348,-0.56208 0.287811,-0.66465 l 0.07357,-0.1865 0.461377,0.27783 c 0.950928,0.57261 2.251634,0.83626 3.226794,0.65406 1.232396,-0.23027 1.628718,-1.28052 0.68895,-1.82571 -0.191522,-0.11111 -0.938772,-0.36036 -1.660555,-0.5539 -1.572328,-0.4216 -1.898262,-0.55685 -2.373428,-0.98491 -0.49782,-0.44846 -0.693387,-0.92181 -0.693387,-1.67826 0,-0.73639 0.242713,-1.28523 0.785041,-1.77519 1.0565,-0.95448 3.200074,-1.16072 4.996172,-0.48069 0.83258,0.31522 0.827662,0.30556 0.539522,1.0604 -0.18188,0.47647 -0.282208,0.63958 -0.375253,0.61009 -0.06985,-0.0221 -0.357648,-0.13688 -0.639552,-0.25498 -1.031338,-0.43205 -2.235093,-0.48198 -2.982258,-0.12371 -0.631714,0.30291 -0.827209,1.06517 -0.379577,1.48002 0.31253,0.28964 0.597183,0.3991 1.942811,0.74708 1.313474,0.33967 1.889849,0.58023 2.342594,0.97775 1.086848,0.95426 0.914255,2.76916 -0.344074,3.61809 -0.223623,0.15087 -0.63319,0.35395 -0.910146,0.4513 -0.650632,0.22868 -2.0508,0.29114 -2.882132,0.12858 z m 10.981412,-0.0517 c -2.118116,-0.55491 -3.488411,-2.30023 -3.488411,-4.44312 0,-3.04809 2.796666,-5.15063 5.968999,-4.48751 2.96478,0.61974 4.51257,3.80709 3.17359,6.53538 -0.97816,1.99308 -3.35154,2.99851 -5.654178,2.39525 z m 2.734008,-1.68485 c 0.62548,-0.30792 1.07621,-0.7748 1.38614,-1.43578 0.19454,-0.41489 0.22311,-0.58448 0.22311,-1.32427 0,-0.78664 -0.0201,-0.88929 -0.27599,-1.40906 -0.32146,-0.65297 -0.7809,-1.10089 -1.44952,-1.41318 -0.40927,-0.19115 -0.58833,-0.22213 -1.280159,-0.22147 -0.7062,6.7e-4 -0.869324,0.0306 -1.337012,0.2451 -1.097155,0.50325 -1.726299,1.52385 -1.726299,2.80039 0,0.8678 0.225161,1.48941 0.751585,2.07492 0.658396,0.7323 1.421886,1.02951 2.51076,0.9774 0.530685,-0.0254 0.772105,-0.0847 1.197385,-0.29405 z m 20.61274,1.6115 c -0.80737,-0.21797 -1.4047,-0.56938 -2.02896,-1.19364 -0.91664,-0.91663 -1.27767,-1.81411 -1.27767,-3.17613 0,-0.85978 0.15839,-1.55887 0.49729,-2.19499 0.31356,-0.58856 1.22534,-1.47967 1.83985,-1.79814 1.88279,-0.97577 4.3612,-0.59307 5.72521,0.88406 0.84208,0.91191 1.18392,1.80962 1.18392,3.10907 0,1.29945 -0.34184,2.19716 -1.18392,3.10907 -1.10941,1.20142 -3.06002,1.71851 -4.75572,1.2607 z m 2.42055,-0.64884 c 1.84278,-0.47986 3.06475,-2.37542 2.76784,-4.29359 -0.30228,-1.95288 -1.86865,-3.27967 -3.87188,-3.27967 -1.12593,0 -1.92681,0.30825 -2.72794,1.04995 -0.58192,0.53876 -0.90068,1.08138 -1.07857,1.83605 -0.23275,0.98744 -0.10214,2.05283 0.35454,2.89189 0.25929,0.47641 1.06437,1.25723 1.55363,1.50684 0.8127,0.41461 2.05847,0.53433 3.00238,0.28853 z m 19.30919,0.67378 c -0.63958,-0.15475 -1.49312,-0.57475 -1.78305,-0.87737 l -0.22596,-0.23586 0.1613,-0.26523 c 0.15689,-0.258 0.16527,-0.26086 0.30645,-0.10486 0.20335,0.2247 1.02146,0.64476 1.57503,0.8087 0.60422,0.17894 1.84508,0.1812 2.43536,0.004 1.02036,-0.30556 1.54101,-1.23581 1.17389,-2.09742 -0.25126,-0.58968 -0.68381,-0.81593 -2.5277,-1.3222 -1.44749,-0.39742 -1.95003,-0.6291 -2.36787,-1.0916 -0.39855,-0.44115 -0.52209,-0.84191 -0.47264,-1.53313 0.0454,-0.63373 0.19629,-0.9802 0.60517,-1.38908 0.93519,-0.93519 3.15175,-1.1003 4.6592,-0.34706 0.23737,0.11862 0.46567,0.24893 0.50731,0.2896 0.0685,0.0669 -0.0853,0.59136 -0.17348,0.59136 -0.0192,0 -0.21458,-0.091 -0.43422,-0.20223 -0.9621,-0.48719 -2.27509,-0.62834 -3.21919,-0.34607 -0.74054,0.22141 -1.2842,0.90722 -1.28602,1.62228 -0.001,0.53797 0.47157,1.11123 1.13302,1.37333 0.23806,0.0943 0.98801,0.3225 1.66656,0.50705 1.28771,0.3502 1.70943,0.53878 2.18133,0.97537 0.43758,0.40484 0.55475,0.69341 0.553,1.36193 -0.003,1.21007 -0.62933,1.92789 -2.00005,2.29279 -0.563,0.14988 -1.81808,0.14238 -2.46744,-0.0147 z m -79.8069,-2.5749 v -2.62466 h 3.005666 3.005667 v 0.71966 0.71967 h -2.159 -2.159 v 1.18533 1.18534 h 2.54 2.54 v 0.71966 0.71967 H 66.632666 63.246 Z m 10.16,-1.82033 v -4.445 h 0.74327 0.74327 l 2.389397,2.92945 2.389397,2.92945 v -2.92945 -2.92945 h 0.889 0.889 v 4.445 4.445 l -0.740834,-9.6e-4 -0.740833,-9.7e-4 -2.370667,-2.91747 -2.370667,-2.91746 -0.02226,2.91843 -0.02226,2.91843 H 74.293903 73.406 Z m 34.12067,0 v -4.445 h 2.26821 c 2.89606,0 3.41104,0.11687 4.33871,0.98459 0.54821,0.51279 0.77839,1.06667 0.82576,1.98706 0.065,1.26212 -0.38857,2.20796 -1.31543,2.74335 -0.24793,0.14321 -0.42351,0.30009 -0.40254,0.35967 0.0204,0.0581 0.43157,0.66772 0.9136,1.35466 0.48203,0.68695 0.9046,1.29663 0.93905,1.35484 0.0485,0.082 -0.14528,0.10583 -0.86173,0.10583 h -0.92437 l -0.8798,-1.26727 -0.8798,-1.26727 -1.16416,-0.003 -1.16417,-0.003 v 1.27 1.27 h -0.84667 -0.84666 z m 4.79418,0.23155 c 0.68321,-0.35569 1.02255,-0.98747 0.93364,-1.73824 -0.0678,-0.57251 -0.3715,-1.00812 -0.87507,-1.25517 -0.36724,-0.18016 -0.54445,-0.20308 -1.78359,-0.23063 l -1.37583,-0.0306 v 1.75431 1.75431 l 1.37583,-0.0361 c 1.19915,-0.0315 1.42068,-0.0594 1.72502,-0.21789 z m 18.82782,-0.23675 v -4.45021 l 2.18017,0.0264 c 1.87898,0.0227 2.2469,0.0488 2.66329,0.18883 0.93893,0.31574 1.65762,1.04386 1.88916,1.91396 0.32519,1.22198 -0.0477,2.5046 -0.91313,3.14113 -0.82735,0.6085 -1.45844,0.74462 -3.46999,0.74844 l -1.5875,0.003 v 1.43934 1.43933 h -0.381 -0.381 z m 4.84492,0.6129 c 0.86229,-0.4215 1.25155,-1.0617 1.25061,-2.05686 -6.8e-4,-0.70154 -0.12037,-1.05424 -0.50681,-1.49326 -0.62238,-0.70706 -1.42609,-0.90991 -3.60518,-0.90991 h -1.22154 v 2.37794 2.37794 l 1.79917,-0.0295 c 1.77013,-0.029 1.80698,-0.0333 2.28375,-0.26636 z" id="path849"></path>
      <path id="path855" d="m 63.246,122.40934 v -0.72066 h 3.305424 3.305424 l -0.02459,0.6985 -0.02459,0.6985 -3.280834,0.0222 -3.280833,0.0222 z" style="fill:#2490eb;fill-opacity:1;stroke-width:0.085;stroke-miterlimit:4;stroke-dasharray:none"></path>
    </g>
    <g id="layer1-4" transform="matrix(0.14863973,0,0,0.14863973,26.885399,113.57418)">
      <path style="fill:#2490eb;fill-opacity:1;stroke:none;stroke-width:0.284665" d="m 156.05934,173.04733 c 0.85358,-2.99127 0.81974,-8.25118 -1.21382,-10.70788 -2.40553,-2.90579 -7.31168,-4.58048 -10.53276,-6.38671 -9.76868,-5.47839 -19.59749,-10.84087 -29.36646,-16.31491 -6.45055,-3.61449 -12.84461,-7.9148 -19.577636,-10.92055 4.35575,-2.86983 9.793566,-4.68638 14.543386,-6.78606 1.95385,-0.86362 4.2338,-2.304 6.43265,-2.131 2.85499,0.22458 5.51587,2.68498 7.83106,4.21843 5.03369,3.33391 10.12136,6.59324 15.10275,10.01042 2.58229,1.77146 6.06375,3.23638 7.45964,6.27777 0.98363,2.14291 -0.23494,5.77942 1.53153,7.34951 1.19367,1.06103 5.87161,4.36579 7.42104,3.35837 1.09523,-0.71218 0.6483,-3.20133 0.6483,-4.33363 0,-3.76805 1.14669,-9.90501 -1.22892,-13.03709 -2.03579,-2.68443 -5.80337,-4.31247 -8.5599,-6.10019 -6.31574,-4.09557 -12.70281,-8.07354 -19.01827,-12.16903 -3.09411,-2.0065 -6.91902,-5.55061 -10.62787,-6.01657 -3.4809,-0.4373 -6.80658,2.09681 -9.78882,3.64164 l -20.136986,10.4306 c -2.33116,1.20748 -4.72819,2.33312 -6.98684,3.68275 -0.83568,0.49937 -1.86558,1.27564 -1.16965,2.37914 1.03037,1.63383 4.02583,2.68472 5.63937,3.6113 4.89569,2.81134 9.94431,5.34626 14.82306,8.19526 11.981786,6.99749 24.250266,13.50676 36.358466,20.26724 6.75149,3.76979 13.3746,8.33752 20.41668,11.48119 M 76.350394,140.0171 c 0,3.43311 -0.8535,8.02374 1.70742,10.6902 1.58358,1.64862 3.91416,2.50306 5.84395,3.62985 4.42763,2.58592 8.95627,4.99017 13.42467,7.49989 8.379216,4.70565 16.835916,9.27802 25.171246,14.0674 4.52439,2.59983 9.57458,6.38034 14.54338,7.86323 v 0.86921 c -5.03452,1.23893 -10.06737,4.33015 -14.82306,6.45567 -2.6771,1.19663 -5.22416,2.65256 -8.11074,1.25168 -6.37448,-3.09355 -12.21617,-8.06286 -18.179236,-11.93058 -2.9471,-1.91141 -7.25029,-3.84194 -9.33067,-6.79119 -1.74641,-2.47582 -0.43722,-4.99423 -1.46594,-7.46802 -0.66922,-1.60921 -6.24236,-4.77026 -7.90056,-4.27683 -1.38654,0.41258 -0.88046,3.08774 -0.88046,4.21599 0,3.90452 -1.18685,10.17186 1.45817,13.32364 2.51757,2.99966 7.02144,5.03218 10.28841,7.07368 6.19325,3.87004 12.256716,7.96608 18.458906,11.82164 3.28429,2.0415 6.83959,5.4694 10.90754,5.1304 3.11509,-0.2596 6.47461,-2.8206 9.22947,-4.24757 l 19.29795,-9.99425 c 2.14319,-1.10999 4.30764,-2.18521 6.43125,-3.3349 0.76101,-0.412 1.86435,-0.98887 1.65543,-2.07597 -0.30094,-1.56459 -3.24821,-2.61403 -4.45083,-3.29839 -4.44245,-2.52739 -8.99089,-4.85805 -13.42467,-7.40428 -13.97479,-8.02547 -28.07377,-15.90811 -42.231756,-23.583 -3.84997,-2.08728 -7.64599,-4.28814 -11.4669,-6.43365 -1.91796,-1.07696 -3.99473,-2.65024 -6.15297,-3.05385 z" id="path849-5"></path>
      <path style="fill:#ECEDF4;stroke-width:0.0846667" id="path847" d=""></path>
    </g>
  </g>
  <g transform="translate(14.468029,0.35932544)" style="display:inline" id="layer2"></g>
</svg>